# xmcd
#
# Track frame offsets: 
#        150
#        29559
#        50494
#        74954
#        106387
#        132334
#        153374
#        176143
#        197357
#        218818
#
# Disc length: 3186 seconds
#
# Revision: 0
# Processed by: cddbd v1.5.2PL0 Copyright (c) Steve Scherf et al.
# Submitted via: ExactAudioCopy v1.0b3
#
DISCID=970c700a
DTITLE=Truong Vu - Tim Quen
DYEAR=1998
DGENRE=
TTITLE0=Tim quen
TTITLE1=Dang do
TTITLE2=Ngay em con ben toi
TTITLE3=Lo chuyen do tinh
TTITLE4=Em ve keo mua
TTITLE5=Chuyen mua may
TTITLE6=Em sap ve chua
TTITLE7=Chuyen doi ta
TTITLE8=Mai em sang ngang
TTITLE9=Trao nguoi o lai
EXTD=
EXTT0=
EXTT1=
EXTT2=
EXTT3=
EXTT4=
EXTT5=
EXTT6=
EXTT7=
EXTT8=
EXTT9=
PLAYORDER=
